<?xml version="1.0" standalone="no"?>
<!DOCTYPE svg PUBLIC "-//W3C//DTD SVG 20010904//EN"
 "http://www.w3.org/TR/2001/REC-SVG-20010904/DTD/svg10.dtd">
<svg version="1.0" xmlns="http://www.w3.org/2000/svg"
 width="800.000000pt" height="800.000000pt" viewBox="0 0 800.000000 800.000000"
 preserveAspectRatio="xMidYMid meet">
<metadata>
Created by potrace 1.14, written by Peter Selinger 2001-2017
</metadata>
<g transform="translate(0.000000,800.000000) scale(0.100000,-0.100000)"
fill="#000000" stroke="none">
<path d="M2405 7610 c-4 -6 -55 -10 -120 -10 -65 0 -116 -4 -120 -10 -3 -5
-26 -10 -50 -10 -24 0 -47 -4 -50 -10 -3 -5 -21 -10 -40 -10 -19 0 -37 -4 -40
-10 -3 -5 -17 -10 -30 -10 -13 0 -27 -4 -30 -10 -3 -5 -15 -10 -25 -10 -11 0
-35 -9 -55 -20 -20 -11 -41 -20 -48 -20 -16 0 -222 -103 -245 -122 -9 -8 -33
-22 -53 -31 -20 -9 -42 -23 -49 -32 -7 -8 -18 -15 -25 -15 -6 0 -20 -9 -30
-20 -10 -11 -23 -20 -30 -20 -6 0 -24 -13 -40 -30 -16 -16 -34 -30 -40 -30 -5
0 -60 -49 -120 -110 -69 -69 -117 -110 -130 -110 -21 0 -95 -67 -95 -86 0 -6
-13 -23 -30 -39 -16 -16 -30 -34 -30 -40 0 -6 -13 -24 -30 -40 -16 -16 -30
-34 -30 -41 0 -6 -7 -17 -15 -24 -9 -7 -25 -32 -35 -55 -10 -23 -26 -48 -35
-55 -8 -7 -15 -17 -15 -22 0 -6 -13 -30 -30 -55 -16 -24 -30 -50 -30 -57 0 -7
-18 -48 -40 -91 -22 -43 -40 -86 -40 -96 0 -10 -4 -21 -10 -24 -5 -3 -10 -17
-10 -30 0 -13 -4 -27 -10 -30 -5 -3 -10 -17 -10 -30 0 -13 -4 -27 -10 -30 -5
-3 -10 -17 -10 -30 0 -13 -4 -27 -10 -30 -5 -3 -10 -17 -10 -30 0 -13 -4 -27
-10 -30 -5 -3 -10 -21 -10 -40 0 -19 -4 -37 -10 -40 -5 -3 -10 -26 -10 -50 0
-24 -4 -47 -10 -50 -6 -4 -10 -65 -10 -151 0 -89 -4 -144 -10 -144 -5 0 -10
-18 -10 -40 0 -22 5 -40 10 -40 6 0 10 -13 10 -30 0 -16 -4 -30 -10 -30 -5 0
-10 -9 -10 -20 0 -11 5 -20 10 -20 6 0 10 -28 10 -64 0 -36 5 -68 10 -71 6 -3
10 -39 10 -80 0 -41 5 -77 10 -80 6 -3 10 -21 10 -40 0 -19 4 -37 10 -40 5 -3
10 -24 10 -45 0 -22 9 -55 20 -75 11 -20 20 -44 20 -55 0 -10 5 -22 10 -25 6
-3 10 -14 10 -25 0 -10 14 -44 30 -75 17 -31 30 -63 30 -69 0 -19 28 -72 45
-86 8 -7 15 -20 15 -30 0 -22 26 -74 45 -90 8 -7 15 -18 15 -25 0 -7 7 -18 15
-25 9 -7 24 -32 35 -54 11 -24 68 -90 134 -156 64 -63 116 -122 116 -130 0 -9
-36 -51 -80 -95 -44 -44 -80 -85 -80 -91 0 -6 -9 -19 -20 -29 -11 -10 -20 -23
-20 -30 0 -7 -9 -20 -20 -30 -11 -10 -20 -23 -20 -30 0 -7 -9 -20 -20 -30 -11
-10 -20 -24 -20 -30 0 -7 -6 -18 -14 -24 -19 -16 -186 -351 -186 -373 0 -9 -4
-20 -10 -23 -5 -3 -10 -17 -10 -30 0 -13 -4 -27 -10 -30 -5 -3 -10 -17 -10
-30 0 -13 -4 -27 -10 -30 -5 -3 -10 -21 -10 -40 0 -19 -4 -37 -10 -40 -5 -3
-10 -26 -10 -50 0 -24 -4 -47 -10 -50 -5 -3 -10 -26 -10 -50 0 -24 -4 -47 -10
-50 -6 -3 -10 -44 -10 -91 0 -49 -4 -84 -10 -84 -6 0 -10 -40 -10 -100 0 -60
4 -100 10 -100 6 0 10 -51 10 -134 0 -79 4 -137 10 -141 6 -3 10 -35 10 -70 0
-35 5 -67 10 -70 6 -3 10 -17 10 -30 0 -13 5 -27 10 -30 6 -3 10 -21 10 -40 0
-19 5 -37 10 -40 6 -3 10 -19 10 -35 0 -16 9 -45 20 -65 11 -20 20 -42 20 -50
0 -8 9 -30 20 -50 11 -20 20 -42 20 -49 0 -7 18 -48 40 -91 22 -43 40 -85 40
-95 0 -9 9 -25 20 -35 11 -10 20 -23 20 -30 0 -7 9 -20 20 -30 11 -10 20 -24
20 -30 0 -7 7 -18 15 -25 9 -7 24 -32 35 -54 10 -23 30 -52 44 -65 14 -14 26
-29 26 -35 0 -15 332 -346 346 -346 6 0 19 -9 29 -20 10 -11 23 -20 30 -20 7
0 20 -9 30 -20 10 -11 23 -20 30 -20 7 0 20 -9 30 -20 10 -11 23 -20 30 -20 7
0 20 -9 30 -20 10 -11 23 -20 30 -20 6 0 24 -14 40 -30 16 -17 38 -30 50 -30
12 0 30 -9 40 -20 10 -11 26 -20 35 -20 9 0 61 -23 115 -50 54 -28 106 -50
116 -50 10 0 21 -4 24 -10 3 -5 17 -10 30 -10 13 0 27 -4 30 -10 3 -5 17 -10
30 -10 13 0 27 -5 30 -10 3 -5 26 -10 50 -10 24 0 47 -4 50 -10 3 -5 35 -10
71 -10 36 0 64 -4 64 -10 0 -14 3576 -14 3585 0 3 5 37 10 75 10 38 0 72 5 75
10 3 6 21 10 40 10 19 0 37 5 40 10 3 6 15 10 25 10 11 0 35 9 55 20 20 11 44
20 55 20 10 0 22 5 25 10 3 6 14 10 23 10 22 0 277 127 293 146 6 8 16 14 21
14 5 0 28 12 51 28 23 15 50 32 59 37 108 67 258 200 258 229 0 14 33 54 90
111 50 49 90 94 90 100 0 6 14 24 30 40 17 16 30 34 30 40 0 6 13 24 30 40 16
16 30 34 30 41 0 6 7 17 15 24 8 7 27 37 41 69 15 31 34 64 42 73 19 23 82
149 82 165 0 7 9 28 20 48 11 20 20 44 20 55 0 10 4 22 10 25 6 3 10 17 10 30
0 13 4 27 10 30 5 3 10 17 10 30 0 13 4 27 10 30 5 3 10 21 10 40 0 19 4 37
10 40 5 3 10 21 10 40 0 19 5 37 10 40 6 3 10 26 10 50 0 24 4 47 10 50 6 3
10 35 10 70 0 35 4 67 10 70 6 4 10 68 10 161 0 96 4 154 10 154 6 0 10 38 10
95 0 52 -4 95 -9 95 -4 0 -11 24 -15 53 -6 50 -24 146 -44 232 -22 96 -80 245
-138 358 -105 202 -122 233 -146 263 -13 16 -46 63 -73 104 -28 41 -76 103
-109 137 l-58 63 58 71 c142 171 192 246 274 412 34 70 66 130 71 133 5 3 9
12 9 20 0 8 9 33 19 57 21 45 51 134 70 207 7 25 16 59 21 75 4 17 13 62 20
100 7 39 16 92 21 118 5 26 9 68 9 92 0 25 5 45 10 45 6 0 10 70 10 190 0 120
-4 190 -10 190 -5 0 -10 24 -10 53 0 59 -31 232 -59 327 -5 19 -13 46 -16 60
-4 14 -10 34 -15 45 -5 11 -18 47 -30 80 -30 85 -126 272 -187 367 -15 24 -32
51 -38 60 -22 36 -100 145 -134 187 -129 158 -375 378 -465 416 -19 8 -37 19
-40 23 -8 13 -223 133 -261 147 -18 6 -39 15 -46 21 -38 28 -241 97 -334 114
-38 6 -92 16 -118 21 -69 13 -3424 12 -3432 -1z m3418 -533 c203 -49 332 -105
499 -217 264 -177 482 -425 607 -690 69 -148 83 -189 123 -375 18 -83 18 -500
0 -575 -7 -30 -20 -84 -29 -120 -75 -319 -337 -733 -596 -943 -125 -101 -197
-147 -362 -227 -197 -97 -453 -178 -678 -214 -50 -8 -108 -18 -127 -22 -19 -4
-600 -10 -1290 -13 -1241 -7 -1256 -7 -1336 -28 -106 -29 -219 -74 -324 -130
-304 -162 -532 -440 -626 -764 -26 -86 -28 -108 -27 -254 1 -132 5 -174 23
-240 44 -163 99 -263 229 -419 81 -96 163 -162 273 -220 110 -59 191 -83 317
-96 144 -14 2962 -14 3068 1 297 40 514 186 669 450 76 130 87 154 116 259 20
74 23 107 22 255 0 151 -3 181 -26 266 -41 153 -126 307 -260 476 -32 40 -58
75 -58 78 0 4 26 17 58 31 158 70 448 238 482 279 16 19 40 19 54 1 264 -333
367 -542 428 -871 8 -45 13 -149 12 -290 0 -200 -3 -230 -26 -330 -79 -339
-231 -601 -492 -852 -197 -191 -422 -313 -711 -390 -67 -17 -152 -18 -1815
-18 -1621 0 -1750 1 -1816 17 -598 146 -1096 674 -1209 1283 -35 185 -36 444
-4 615 19 102 110 369 159 464 40 78 153 245 180 266 4 3 18 23 32 45 36 56
241 269 286 296 65 40 142 101 141 113 0 6 -48 52 -105 101 -178 153 -305 297
-443 503 -164 244 -239 469 -272 812 -17 175 -1 349 46 504 105 346 214 539
431 761 224 230 562 402 854 434 41 5 836 8 1765 7 1544 -2 1696 -3 1758 -19z
m-2578 -3947 c4 -7 362 -10 1040 -10 678 0 1036 -3 1040 -10 3 -5 19 -10 35
-10 15 0 54 -13 85 -30 31 -16 64 -30 73 -30 18 0 222 -198 222 -216 0 -6 9
-19 20 -29 11 -10 20 -23 20 -30 0 -7 9 -20 20 -30 12 -11 20 -31 20 -51 0
-18 5 -36 10 -39 6 -3 10 -21 10 -40 0 -19 5 -37 10 -40 6 -3 10 -42 10 -85 0
-43 -4 -82 -10 -85 -5 -3 -10 -19 -10 -34 0 -43 -45 -122 -103 -179 -58 -57
-174 -122 -218 -122 -15 0 -31 -4 -34 -10 -4 -7 -497 -10 -1445 -10 -948 0
-1441 3 -1445 10 -3 6 -23 10 -44 10 -54 0 -164 59 -228 122 -32 32 -68 81
-88 123 -35 69 -35 72 -35 202 0 77 4 134 10 138 6 3 10 17 10 30 0 13 5 27
10 30 6 3 10 14 10 24 0 89 262 351 351 351 10 0 21 5 24 10 3 6 17 10 30 10
13 0 27 5 30 10 3 6 21 10 40 10 19 0 37 5 40 10 4 6 97 10 245 10 148 0 241
-4 245 -10z"/>
<path d="M2385 6435 c-308 -68 -576 -316 -683 -630 -40 -119 -47 -167 -47
-330 1 -193 19 -277 95 -430 87 -176 268 -390 410 -483 99 -66 274 -147 385
-179 l100 -28 1345 1 c1204 0 1354 2 1426 17 384 77 668 297 849 656 56 112
81 186 100 300 44 249 -24 531 -176 734 -117 156 -307 298 -474 355 l-80 27
-1595 2 c-1299 1 -1606 -1 -1655 -12z m3020 -505 c3 -5 30 -10 60 -10 30 0 57
-4 60 -10 3 -5 14 -10 24 -10 48 0 211 -120 211 -156 0 -6 9 -19 20 -29 11
-10 20 -26 20 -36 0 -10 9 -34 20 -54 11 -20 20 -44 20 -55 0 -10 5 -22 10
-25 6 -3 10 -37 10 -75 0 -38 -4 -72 -10 -75 -5 -3 -10 -30 -10 -59 0 -40 -5
-57 -20 -71 -11 -10 -20 -28 -20 -40 0 -12 -9 -30 -20 -40 -11 -10 -20 -23
-20 -30 0 -7 -9 -20 -20 -30 -11 -10 -20 -23 -20 -28 0 -15 -41 -57 -55 -57
-6 0 -22 -11 -35 -25 -26 -28 -155 -95 -183 -95 -10 0 -26 -4 -35 -9 -10 -5
-41 -11 -69 -13 -29 -2 -55 -7 -59 -11 -12 -11 -2582 -9 -2589 3 -3 6 -21 10
-40 10 -19 0 -37 5 -40 10 -3 6 -14 10 -24 10 -22 0 -116 47 -131 65 -7 8 -17
15 -23 15 -15 0 -137 121 -137 136 0 6 -7 17 -15 24 -18 15 -65 109 -65 131 0
10 -4 21 -10 24 -5 3 -10 26 -10 50 0 24 -4 47 -10 50 -13 8 -13 102 0 110 6
3 10 23 10 44 0 43 39 127 75 161 14 13 25 28 25 34 0 21 104 116 127 116 12
0 25 5 28 10 3 6 17 10 30 10 13 0 27 5 30 10 4 7 468 10 1360 10 892 0 1356
3 1360 10 3 6 42 10 85 10 43 0 82 -4 85 -10z"/>
</g>
</svg>
